<svg width="22" height="30" viewBox="0 0 22 30" fill="none" xmlns="http://www.w3.org/2000/svg">
<path fill-rule="evenodd" clip-rule="evenodd" d="M19.25 9.78266H17.875V7.17396C17.875 3.52179 14.85 0.652222 11 0.652222C7.15 0.652222 4.125 3.52179 4.125 7.17396V9.78266H2.75C1.2375 9.78266 0 10.9566 0 12.3914V25.4348C0 26.8696 1.2375 28.0435 2.75 28.0435H19.25C20.7625 28.0435 22 26.8696 22 25.4348V12.3914C22 10.9566 20.7625 9.78266 19.25 9.78266ZM11 3.13048C13.3375 3.13048 15.2625 4.95657 15.2625 7.17396V9.78266H6.875V7.17396H6.7375C6.7375 4.95657 8.6625 3.13048 11 3.13048ZM19.25 25.4348H2.75V12.3914H19.25V25.4348ZM11 21.5218C12.5125 21.5218 13.75 20.3479 13.75 18.9131C13.75 17.4783 12.5125 16.3044 11 16.3044C9.4875 16.3044 8.25 17.4783 8.25 18.9131C8.25 20.3479 9.4875 21.5218 11 21.5218Z" fill="#B8AEAE"/>
</svg>
