<svg width="144" height="150" viewBox="0 0 144 150" fill="none" xmlns="http://www.w3.org/2000/svg">
<path d="M97.8965 111.145H21.8165C20.2686 111.145 19.0138 109.833 19.0138 108.215V64.3251C19.0138 62.7071 20.2686 61.3954 21.8165 61.3954H21.8664C23.2692 61.3954 24.4561 62.4797 24.6439 63.9328C25.7221 72.2731 32.6185 78.5625 40.6856 78.5625C48.7527 78.5625 55.6493 72.2731 56.7272 63.9328C56.915 62.4797 58.102 61.3954 59.5047 61.3954H59.6788C61.2267 61.3954 62.4815 62.7071 62.4815 64.3251C62.4815 73.6574 69.7448 81.2493 78.6723 81.2493C87.6001 81.2493 94.8631 73.6571 94.8631 64.3251C94.8631 62.7071 96.1179 61.3954 97.6658 61.3954H97.8965C99.4444 61.3954 100.699 62.7071 100.699 64.3251V108.215C100.699 109.833 99.4444 111.145 97.8965 111.145ZM24.6192 105.286H95.0938V79.2914C91.0951 84.0791 85.2156 87.109 78.6723 87.109C69.9769 87.109 62.4541 81.7579 58.9591 74.0414C55.0358 80.3206 48.242 84.4222 40.6856 84.4222C34.3971 84.4222 28.6364 81.5813 24.6192 77.0089V105.286Z" fill="black"/>
<path d="M121.807 104.187C121.512 104.187 121.215 104.138 120.927 104.039L96.786 95.689C95.6385 95.2923 94.8636 94.1711 94.8636 92.9075V80.2902C94.8636 79.1031 95.5489 78.0332 96.599 77.5811L120.74 67.1904C121.605 66.8181 122.59 66.9215 123.367 67.4652C124.144 68.009 124.61 68.9222 124.61 69.8995V101.257C124.61 102.198 124.178 103.081 123.449 103.632C122.965 103.997 122.389 104.187 121.807 104.187ZM100.469 90.7908L119.005 97.2019V74.2738L100.469 82.2519V90.7908Z" fill="black"/>
<path d="M40.6859 84.4222C29.8259 84.4222 20.5413 75.951 19.0889 64.7177C18.9566 63.6964 18.8896 62.6605 18.8896 61.6389C18.8896 49.0761 28.6672 38.8553 40.6859 38.8553C52.7045 38.8553 62.4821 49.0758 62.4821 61.6389C62.4821 62.6605 62.4151 63.6964 62.2828 64.7183C60.8307 75.951 51.5459 84.4222 40.6859 84.4222ZM40.6859 44.7144C31.7583 44.7144 24.4951 52.3067 24.4951 61.6386C24.4951 62.3983 24.5452 63.17 24.6439 63.9326C25.7221 72.2734 32.6188 78.5629 40.6859 78.5629C48.7529 78.5629 55.6496 72.2734 56.7275 63.9332C56.8265 63.1703 56.8764 62.3983 56.8764 61.6386C56.8766 52.3067 49.6134 44.7144 40.6859 44.7144Z" fill="black"/>
<path d="M78.6724 87.109C66.654 87.109 56.8761 76.8882 56.8761 64.3254C56.8761 51.7626 66.6537 41.5418 78.6724 41.5418C90.691 41.5418 100.469 51.7623 100.469 64.3254C100.469 76.8885 90.691 87.109 78.6724 87.109ZM78.6724 47.4012C69.7448 47.4012 62.4816 54.9935 62.4816 64.3254C62.4816 73.6576 69.7448 81.2496 78.6724 81.2496C87.6002 81.2496 94.8631 73.6573 94.8631 64.3254C94.8631 54.9932 87.6002 47.4012 78.6724 47.4012Z" fill="black"/>
<path d="M49.561 101.218H31.8102C30.2623 101.218 29.0075 99.9065 29.0075 98.2884C29.0075 96.6704 30.2623 95.3587 31.8102 95.3587H49.561C51.1089 95.3587 52.3637 96.6704 52.3637 98.2884C52.3637 99.9065 51.1089 101.218 49.561 101.218Z" fill="black"/>
</svg>
