<svg width="41" height="42" viewBox="0 0 41 42" fill="none" xmlns="http://www.w3.org/2000/svg">
<path d="M20.4997 1.75C16.783 1.75 13.1499 2.87899 10.0596 4.99421C6.96932 7.10943 4.56074 10.1159 3.13845 13.6333C1.71615 17.1508 1.34401 21.0214 2.06909 24.7555C2.79417 28.4896 4.58391 31.9196 7.21197 34.6118C9.84003 37.304 13.1884 39.1373 16.8336 39.8801C20.4788 40.6229 24.2572 40.2417 27.6909 38.7847C31.1247 37.3277 34.0595 34.8604 36.1244 31.6947C38.1892 28.5291 39.2914 24.8073 39.2914 21C39.2914 15.8946 37.3115 10.9983 33.7874 7.3882C30.2633 3.77812 25.4835 1.75 20.4997 1.75ZM30.7497 22.75H14.3736L18.2908 26.7628C18.454 26.9242 18.5841 27.1173 18.6736 27.3308C18.7632 27.5443 18.8103 27.7739 18.8123 28.0063C18.8142 28.2387 18.771 28.4691 18.6851 28.6842C18.5992 28.8992 18.4724 29.0946 18.312 29.2589C18.1516 29.4233 17.9608 29.5532 17.7509 29.6412C17.5409 29.7292 17.316 29.7735 17.0892 29.7714C16.8623 29.7694 16.6382 29.7211 16.4297 29.6294C16.2213 29.5377 16.0328 29.4044 15.8752 29.2373L9.04189 22.2372C8.72163 21.9091 8.54171 21.464 8.54171 21C8.54171 20.536 8.72163 20.0909 9.04189 19.7628L15.8752 12.7628C16.0328 12.5956 16.2213 12.4623 16.4297 12.3706C16.6382 12.2789 16.8623 12.2306 17.0892 12.2286C17.316 12.2265 17.5409 12.2708 17.7509 12.3588C17.9608 12.4468 18.1516 12.5767 18.312 12.7411C18.4724 12.9054 18.5992 13.1008 18.6851 13.3158C18.771 13.5309 18.8142 13.7613 18.8123 13.9937C18.8103 14.2261 18.7632 14.4557 18.6736 14.6692C18.5841 14.8827 18.454 15.0758 18.2908 15.2372L14.3736 19.25H30.7497C31.2028 19.25 31.6373 19.4344 31.9577 19.7626C32.278 20.0908 32.458 20.5359 32.458 21C32.458 21.4641 32.278 21.9092 31.9577 22.2374C31.6373 22.5656 31.2028 22.75 30.7497 22.75Z" fill="#FB8EC9" fill-opacity="0.87"/>
</svg>
