<svg width="41" height="42" viewBox="0 0 41 42" fill="none" xmlns="http://www.w3.org/2000/svg">
<path d="M20.5002 1.75C16.7835 1.75 13.1504 2.87899 10.0601 4.99421C6.96981 7.10943 4.56123 10.1159 3.13894 13.6333C1.71664 17.1508 1.3445 21.0214 2.06958 24.7555C2.79466 28.4896 4.58439 31.9196 7.21246 34.6118C9.84052 37.304 13.1889 39.1373 16.8341 39.8801C20.4793 40.6229 24.2577 40.2417 27.6914 38.7847C31.1252 37.3277 34.06 34.8604 36.1249 31.6947C38.1897 28.5291 39.2918 24.8073 39.2918 21C39.2918 15.8946 37.312 10.9983 33.7879 7.3882C30.2638 3.77812 25.484 1.75 20.5002 1.75ZM30.7502 22.75H14.3741L18.2913 26.7628C18.4545 26.9242 18.5846 27.1173 18.6741 27.3308C18.7637 27.5443 18.8108 27.7739 18.8128 28.0063C18.8147 28.2387 18.7715 28.4691 18.6856 28.6842C18.5997 28.8992 18.4729 29.0946 18.3125 29.2589C18.1521 29.4233 17.9613 29.5532 17.7514 29.6412C17.5414 29.7292 17.3165 29.7735 17.0897 29.7714C16.8628 29.7694 16.6387 29.7211 16.4302 29.6294C16.2218 29.5377 16.0333 29.4044 15.8757 29.2373L9.04238 22.2372C8.72212 21.9091 8.5422 21.464 8.5422 21C8.5422 20.536 8.72212 20.0909 9.04238 19.7628L15.8757 12.7628C16.0333 12.5956 16.2218 12.4623 16.4302 12.3706C16.6387 12.2789 16.8628 12.2306 17.0897 12.2286C17.3165 12.2265 17.5414 12.2708 17.7514 12.3588C17.9613 12.4468 18.1521 12.5767 18.3125 12.7411C18.4729 12.9054 18.5997 13.1008 18.6856 13.3158C18.7715 13.5309 18.8147 13.7613 18.8128 13.9937C18.8108 14.2261 18.7637 14.4557 18.6741 14.6692C18.5846 14.8827 18.4545 15.0758 18.2913 15.2372L14.3741 19.25H30.7502C31.2033 19.25 31.6378 19.4344 31.9581 19.7626C32.2785 20.0908 32.4585 20.5359 32.4585 21C32.4585 21.4641 32.2785 21.9092 31.9581 22.2374C31.6378 22.5656 31.2033 22.75 30.7502 22.75Z" fill="#B6D152" fill-opacity="0.62"/>
</svg>
