<svg width="158" height="173" viewBox="0 0 158 173" fill="none" xmlns="http://www.w3.org/2000/svg">
<path d="M113.283 116.167L123.191 101.142C123.935 100.012 123.702 98.4336 122.67 97.6186C121.636 96.8036 120.197 97.0577 119.451 98.1883L109.525 113.242C109.398 113.438 109.308 113.65 109.235 113.867C100.1 109.093 89.7371 106.385 78.7444 106.385C67.9448 106.385 57.7582 109.003 48.7404 113.62C48.6837 113.491 48.6195 113.362 48.5392 113.24L38.613 98.1869C37.8693 97.0577 36.43 96.8036 35.3962 97.6179C34.3637 98.4336 34.131 100.012 34.8759 101.141L44.6139 115.909C25.8002 127.304 13.009 147.828 12.219 171.437H145.269C144.485 148.001 131.871 127.611 113.283 116.167Z" fill="#AAD4E2"/>
<path d="M46.5681 123.364C46.2379 123.364 45.917 123.177 45.7411 122.841C45.48 122.341 45.6374 121.704 46.0935 121.418C47.3945 120.601 48.748 119.821 50.1169 119.1C50.5915 118.853 51.1593 119.068 51.3883 119.588C51.6161 120.107 51.4167 120.728 50.9427 120.979C49.6151 121.678 48.3018 122.435 47.0409 123.227C46.8915 123.32 46.7279 123.364 46.5681 123.364Z" fill="#F1F2F2"/>
<path d="M24.6771 147.549C24.5234 147.549 24.3679 147.508 24.2235 147.422C23.7612 147.147 23.5909 146.513 23.8427 146.007C28.1414 137.362 34.5151 129.759 42.2725 124.025C42.7076 123.701 43.3008 123.829 43.5945 124.305C43.8889 124.782 43.7741 125.43 43.3384 125.752C35.8322 131.302 29.6689 138.651 25.5153 147.005C25.3418 147.353 25.0147 147.549 24.6771 147.549Z" fill="#F1F2F2"/>
<path d="M100.067 138.786C100.067 152.579 93.4206 164.667 83.4487 171.436H145.269C144.485 148.001 131.871 127.61 113.284 116.167L123.191 101.142C123.935 100.012 123.702 98.4336 122.67 97.6186C121.637 96.8036 120.197 97.0577 119.451 98.1883L109.526 113.242C109.398 113.438 109.308 113.65 109.235 113.867C101.605 109.881 93.1182 107.341 84.1233 106.611C93.7187 113.461 100.067 125.309 100.067 138.786Z" fill="#A6CDDA"/>
<path d="M145.269 173H12.219C11.8314 173 11.4599 172.828 11.1902 172.522C10.9211 172.215 10.7773 171.803 10.7915 171.379C11.5599 148.431 23.3864 127.633 42.5242 115.411L33.7188 102.056C33.1355 101.171 32.9016 100.091 33.0608 99.0128C33.2201 97.9349 33.7533 96.9888 34.5625 96.3502C35.205 95.8447 35.9585 95.5778 36.7455 95.5778C37.9422 95.5778 39.0741 96.2116 39.7734 97.2726L49.2497 111.646C58.4995 107.118 68.4158 104.822 78.7451 104.822C89.2514 104.822 99.3153 107.189 108.678 111.858L118.294 97.2726C118.995 96.2116 120.127 95.5778 121.322 95.5778C122.109 95.5778 122.864 95.8454 123.505 96.3502C125.175 97.67 125.553 100.229 124.349 102.057L115.367 115.678C134.259 127.936 145.935 148.636 146.697 171.379C146.711 171.804 146.568 172.215 146.298 172.522C146.029 172.828 145.657 173 145.269 173ZM13.72 169.872H143.768C142.524 148.318 130.953 128.841 112.584 117.53C112.229 117.312 111.977 116.939 111.889 116.503C111.801 116.067 111.887 115.613 112.126 115.251L122.033 100.226C122.315 99.7973 122.226 99.1966 121.835 98.8864C121.644 98.737 121.451 98.7039 121.322 98.7039C121.037 98.7039 120.776 98.8506 120.609 99.1033L110.684 114.156C110.652 114.206 110.616 114.288 110.578 114.402C110.439 114.817 110.149 115.148 109.776 115.315C109.403 115.481 108.984 115.468 108.621 115.278C99.3147 110.415 89.2632 107.949 78.7451 107.949C68.4214 107.949 58.5303 110.333 49.346 115.036C48.638 115.398 47.7913 115.069 47.453 114.294C47.4327 114.248 47.4117 114.199 47.3827 114.155L37.4565 99.1013C37.2898 98.8485 37.0312 98.7032 36.7455 98.7032C36.6171 98.7032 36.4233 98.7364 36.2313 98.8864C36.0431 99.0351 35.9178 99.2574 35.8808 99.5101C35.8431 99.7629 35.8974 100.017 36.0351 100.224L45.7724 114.993C46.0113 115.355 46.0977 115.813 46.0082 116.249C45.9187 116.686 45.6638 117.059 45.3058 117.276C26.6921 128.551 14.9717 148.122 13.72 169.872Z" fill="black"/>
<path d="M54.3378 144.374C57.8405 144.374 60.68 141.265 60.68 137.43C60.68 133.594 57.8405 130.485 54.3378 130.485C50.8351 130.485 47.9956 133.594 47.9956 137.43C47.9956 141.265 50.8351 144.374 54.3378 144.374Z" fill="black"/>
<path d="M102.015 144.374C105.518 144.374 108.357 141.265 108.357 137.43C108.357 133.594 105.518 130.485 102.015 130.485C98.5121 130.485 95.6726 133.594 95.6726 137.43C95.6726 141.265 98.5121 144.374 102.015 144.374Z" fill="black"/>
<path d="M78.7365 160.878C77.8768 160.878 77.0146 160.722 76.1783 160.403C74.2175 159.657 72.6406 158.119 71.737 156.072C71.5624 155.681 71.4111 155.257 71.2883 154.815C71.0587 153.989 71.484 153.115 72.2388 152.864C72.9936 152.611 73.7916 153.078 74.0206 153.904C74.0996 154.188 74.1953 154.458 74.3058 154.706C74.8797 156.005 75.8765 156.977 77.1164 157.45C78.3557 157.923 79.6889 157.837 80.8708 157.211C82.1329 156.543 83.0766 155.311 83.4599 153.835C83.6759 153.004 84.4696 152.52 85.2244 152.758C85.983 152.994 86.4224 153.86 86.2076 154.69C85.6009 157.024 84.1092 158.969 82.1138 160.026C81.0436 160.593 79.8925 160.878 78.7365 160.878Z" fill="black"/>
</svg>
