<svg width="518" height="211" viewBox="0 0 518 211" fill="none" xmlns="http://www.w3.org/2000/svg">
<path d="M2 34.2L2 181.4" stroke="#5D5D5D" stroke-width="4" stroke-linecap="round"/>
<path d="M49.5928 34.2L49.5928 181.4" stroke="#5D5D5D" stroke-width="4" stroke-linecap="round"/>
<path d="M21.0371 34.2L21.0371 169.9" stroke="#5D5D5D" stroke-width="4" stroke-linecap="round"/>
<path d="M40.0742 18.1L40.0742 197.5" stroke="#5D5D5D" stroke-width="4" stroke-linecap="round"/>
<path d="M59.1113 68.7V140" stroke="#5D5D5D" stroke-width="4" stroke-linecap="round"/>
<path d="M30.5557 2L30.5557 209" stroke="#5D5D5D" stroke-width="4" stroke-linecap="round"/>
<path d="M11.5186 48L11.5186 158.4" stroke="#5D5D5D" stroke-width="4" stroke-linecap="round"/>
<path d="M68.6299 49.15V152.65" stroke="#5D5D5D" stroke-width="4" stroke-linecap="round"/>
<path d="M87.667 34.2V181.4" stroke="#5D5D5D" stroke-width="4" stroke-linecap="round"/>
<path d="M78.1484 25V188.3" stroke="#5D5D5D" stroke-width="4" stroke-linecap="round"/>
<path d="M116.223 77.9V119.3" stroke="#5D5D5D" stroke-width="4" stroke-linecap="round"/>
<path d="M106.704 67.55V128.5" stroke="#5D5D5D" stroke-width="4" stroke-linecap="round"/>
<path d="M125.74 84.8V112.4" stroke="#5D5D5D" stroke-width="4" stroke-linecap="round"/>
<path d="M97.1855 59.5V141.15" stroke="#5D5D5D" stroke-width="4" stroke-linecap="round"/>
<path d="M135.26 73.3V123.9" stroke="#5D5D5D" stroke-width="4" stroke-linecap="round"/>
<path d="M182.852 88.25V111.25" stroke="#5D5D5D" stroke-width="4" stroke-linecap="round"/>
<path d="M154.296 90.55V107.8" stroke="#5D5D5D" stroke-width="4" stroke-linecap="round"/>
<path d="M173.333 98.6V102.05" stroke="#5D5D5D" stroke-width="4" stroke-linecap="round"/>
<path d="M192.37 77.9V119.3" stroke="#5D5D5D" stroke-width="4" stroke-linecap="round"/>
<path d="M163.814 95.15V103.2" stroke="#5D5D5D" stroke-width="4" stroke-linecap="round"/>
<path d="M144.777 84.8V112.4" stroke="#5D5D5D" stroke-width="4" stroke-linecap="round"/>
<path d="M325.63 64.1V135.4" stroke="#5D5D5D" stroke-width="4" stroke-linecap="round"/>
<path d="M335.148 44.55V157.25" stroke="#5D5D5D" stroke-width="4" stroke-linecap="round"/>
<path d="M354.186 29.6V176.8" stroke="#5D5D5D" stroke-width="4" stroke-linecap="round"/>
<path d="M344.667 20.4V183.7" stroke="#5D5D5D" stroke-width="4" stroke-linecap="round"/>
<path d="M382.741 73.3V114.7" stroke="#5D5D5D" stroke-width="4" stroke-linecap="round"/>
<path d="M373.223 62.95V123.9" stroke="#5D5D5D" stroke-width="4" stroke-linecap="round"/>
<path d="M392.259 80.2V107.8" stroke="#5D5D5D" stroke-width="4" stroke-linecap="round"/>
<path d="M363.704 54.9V136.55" stroke="#5D5D5D" stroke-width="4" stroke-linecap="round"/>
<path d="M401.777 68.7V119.3" stroke="#5D5D5D" stroke-width="4" stroke-linecap="round"/>
<path d="M420.814 85.95V103.2" stroke="#5D5D5D" stroke-width="4" stroke-linecap="round"/>
<path d="M430.333 90.55V98.6" stroke="#5D5D5D" stroke-width="4" stroke-linecap="round"/>
<path d="M411.296 80.2V107.8" stroke="#5D5D5D" stroke-width="4" stroke-linecap="round"/>
<path d="M211.407 34.2V181.4" stroke="#5D5D5D" stroke-width="4" stroke-linecap="round"/>
<path d="M201.889 25V188.3" stroke="#5D5D5D" stroke-width="4" stroke-linecap="round"/>
<path d="M239.963 77.9V119.3" stroke="#5D5D5D" stroke-width="4" stroke-linecap="round"/>
<path d="M230.444 67.55V128.5" stroke="#5D5D5D" stroke-width="4" stroke-linecap="round"/>
<path d="M249.481 84.8V112.4" stroke="#5D5D5D" stroke-width="4" stroke-linecap="round"/>
<path d="M220.926 59.5V141.15" stroke="#5D5D5D" stroke-width="4" stroke-linecap="round"/>
<path d="M259 73.3V123.9" stroke="#5D5D5D" stroke-width="4" stroke-linecap="round"/>
<path d="M487.444 160.7V25" stroke="#5D5D5D" stroke-width="4" stroke-linecap="round"/>
<path d="M496.963 181.4V6.60003" stroke="#5D5D5D" stroke-width="4" stroke-linecap="round"/>
<path d="M458.889 117V75.6" stroke="#5D5D5D" stroke-width="4" stroke-linecap="round"/>
<path d="M468.407 127.35V66.4" stroke="#5D5D5D" stroke-width="4" stroke-linecap="round"/>
<path d="M449.37 110.1V82.5" stroke="#5D5D5D" stroke-width="4" stroke-linecap="round"/>
<path d="M477.926 135.4V53.75" stroke="#5D5D5D" stroke-width="4" stroke-linecap="round"/>
<path d="M439.852 121.6V71" stroke="#5D5D5D" stroke-width="4" stroke-linecap="round"/>
<path d="M306.593 88.25V111.25" stroke="#5D5D5D" stroke-width="4" stroke-linecap="round"/>
<path d="M278.037 90.55V107.8" stroke="#5D5D5D" stroke-width="4" stroke-linecap="round"/>
<path d="M297.074 98.6V102.05" stroke="#5D5D5D" stroke-width="4" stroke-linecap="round"/>
<path d="M316.111 77.9V119.3" stroke="#5D5D5D" stroke-width="4" stroke-linecap="round"/>
<path d="M287.556 95.15V103.2" stroke="#5D5D5D" stroke-width="4" stroke-linecap="round"/>
<path d="M268.519 84.8V112.4" stroke="#5D5D5D" stroke-width="4" stroke-linecap="round"/>
<path d="M506.481 15.8V163" stroke="#5D5D5D" stroke-width="4" stroke-linecap="round"/>
<path d="M516 25V156.1" stroke="#5D5D5D" stroke-width="4" stroke-linecap="round"/>
</svg>
