<svg width="891" height="190" viewBox="0 0 891 190" fill="none" xmlns="http://www.w3.org/2000/svg">
<path d="M304.371 127.581L315.115 111.078C315.921 109.839 315.669 108.105 314.55 107.211C313.429 106.315 311.868 106.593 311.06 107.835L300.296 124.368C300.157 124.584 300.059 124.817 299.981 125.056C290.073 119.814 278.835 116.839 266.914 116.839C255.203 116.839 244.155 119.712 234.376 124.784C234.315 124.642 234.245 124.5 234.159 124.368L223.395 107.835C222.588 106.593 221.027 106.316 219.906 107.208C218.785 108.105 218.534 109.837 219.341 111.078L229.901 127.296C209.498 139.812 195.626 162.354 194.77 188.283H339.059C338.208 162.543 324.527 140.15 304.371 127.581Z" fill="#B6D152"/>
<path d="M232.02 135.485C231.662 135.485 231.315 135.279 231.123 134.91C230.84 134.362 231.01 133.661 231.506 133.347C232.918 132.45 234.386 131.593 235.869 130.802C236.384 130.528 237.001 130.768 237.248 131.338C237.495 131.908 237.278 132.592 236.765 132.866C235.327 133.633 233.903 134.463 232.532 135.334C232.37 135.437 232.194 135.485 232.02 135.485Z" fill="#F1F2F2"/>
<path d="M208.281 162.047C208.114 162.047 207.945 162.002 207.787 161.907C207.288 161.605 207.102 160.91 207.375 160.355C212.038 150.858 218.95 142.509 227.361 136.211C227.836 135.857 228.476 135.995 228.796 136.519C229.115 137.043 228.991 137.754 228.518 138.108C220.379 144.203 213.694 152.274 209.188 161.449C209.001 161.831 208.647 162.047 208.281 162.047Z" fill="#F1F2F2"/>
<path d="M290.038 152.423C290.038 167.571 282.831 180.848 272.016 188.282H339.059C338.207 162.542 324.527 140.149 304.371 127.581L315.115 111.078C315.921 109.839 315.669 108.105 314.55 107.21C313.429 106.315 311.868 106.593 311.06 107.835L300.296 124.368C300.157 124.584 300.059 124.817 299.981 125.056C291.706 120.676 282.502 117.888 272.748 117.085C283.153 124.609 290.038 137.62 290.038 152.423Z" fill="#9FB543"/>
<path d="M339.059 190H194.77C194.349 190 193.947 189.811 193.654 189.474C193.363 189.138 193.208 188.686 193.222 188.219C194.054 163.015 206.879 140.173 227.633 126.75L218.085 112.084C216.778 110.077 217.189 107.265 218.998 105.817C219.696 105.261 220.514 104.968 221.367 104.968C222.664 104.968 223.892 105.664 224.65 106.83L234.927 122.616C244.955 117.643 255.71 115.121 266.912 115.121C278.306 115.121 289.219 117.721 299.374 122.848L309.803 106.83C310.562 105.664 311.789 104.968 313.086 104.968C313.939 104.968 314.758 105.262 315.454 105.817C316.332 106.519 316.908 107.557 317.083 108.741C317.255 109.925 317.002 111.111 316.369 112.084L306.629 127.044C327.117 140.506 339.779 163.24 340.605 188.219C340.62 188.686 340.463 189.138 340.173 189.474C339.882 189.811 339.48 190 339.059 190ZM196.397 186.565H337.431C336.081 162.892 323.533 141.5 303.611 129.077C303.228 128.838 302.953 128.427 302.859 127.949C302.764 127.471 302.858 126.971 303.116 126.575L313.86 110.073C314.008 109.846 314.067 109.567 314.027 109.288C313.986 109.01 313.85 108.767 313.646 108.603C313.438 108.437 313.227 108.402 313.088 108.402C312.779 108.402 312.497 108.56 312.316 108.839L301.553 125.371C301.518 125.424 301.48 125.514 301.437 125.642C301.287 126.097 300.972 126.461 300.569 126.645C300.164 126.827 299.709 126.814 299.314 126.605C289.224 121.263 278.322 118.554 266.915 118.554C255.719 118.554 244.992 121.172 235.033 126.337C234.262 126.736 233.348 126.374 232.981 125.524C232.96 125.475 232.939 125.422 232.908 125.376L222.14 108.837C221.959 108.56 221.678 108.401 221.369 108.401C221.229 108.401 221.018 108.437 220.811 108.602C220.388 108.939 220.292 109.601 220.599 110.072L231.159 126.29C231.418 126.688 231.511 127.191 231.414 127.67C231.317 128.15 231.04 128.559 230.653 128.798C210.465 141.182 197.755 162.678 196.397 186.565Z" fill="#594A42"/>
<path d="M292.151 160.278C287.504 160.278 283.724 156.086 283.724 150.934C283.724 150.441 283.76 149.943 283.829 149.453C283.964 148.516 284.752 147.88 285.602 148.026C286.446 148.174 287.022 149.054 286.889 149.99C286.844 150.304 286.82 150.622 286.82 150.933C286.82 154.191 289.211 156.843 292.15 156.843C293.67 156.843 295.121 156.12 296.134 154.86C296.702 154.155 297.682 154.088 298.319 154.72C298.959 155.351 299.015 156.437 298.447 157.144C296.849 159.136 294.553 160.278 292.151 160.278Z" fill="#594A42"/>
<path d="M240.856 160.278C238.452 160.278 236.157 159.136 234.559 157.144C233.99 156.437 234.046 155.351 234.686 154.72C235.324 154.087 236.304 154.152 236.871 154.86C237.885 156.12 239.336 156.843 240.856 156.843C243.794 156.843 246.186 154.191 246.186 150.933C246.186 150.622 246.162 150.303 246.117 149.99C245.983 149.053 246.56 148.174 247.403 148.026C248.254 147.879 249.042 148.516 249.176 149.453C249.246 149.943 249.282 150.441 249.282 150.934C249.283 156.086 245.502 160.278 240.856 160.278Z" fill="#594A42"/>
<path d="M273.087 173.203C272.413 173.203 271.792 172.709 271.599 171.953C271.184 170.331 270.162 168.981 268.793 168.247C266.149 166.827 262.953 168.058 261.674 170.992C261.55 171.278 261.447 171.573 261.366 171.868C261.122 172.778 260.255 173.294 259.44 173.023C258.62 172.752 258.155 171.796 258.398 170.887C258.525 170.417 258.689 169.95 258.884 169.498C260.909 164.86 265.957 162.91 270.141 165.155C272.306 166.315 273.923 168.452 274.579 171.017C274.812 171.929 274.333 172.878 273.511 173.137C273.371 173.181 273.228 173.203 273.087 173.203Z" fill="#594A42"/>
<g clip-path="url(#clip0_45_1908)">
<path d="M843.085 127.581L853.829 111.079C854.637 109.839 854.385 108.104 853.266 107.21C852.143 106.315 850.582 106.593 849.775 107.835L839.011 124.368C838.87 124.584 838.773 124.817 838.696 125.056C828.788 119.813 817.551 116.839 805.629 116.839C793.918 116.839 782.87 119.712 773.091 124.782C773.03 124.641 772.96 124.5 772.873 124.368L762.109 107.835C761.302 106.593 759.741 106.316 758.62 107.208C757.5 108.104 757.248 109.837 758.056 111.079L768.616 127.298C748.213 139.812 734.341 162.354 733.484 188.283H877.773C876.922 162.543 863.242 140.149 843.085 127.581Z" fill="#FB6E52"/>
<path d="M770.735 135.486C770.377 135.486 770.029 135.279 769.839 134.91C769.555 134.363 769.726 133.662 770.22 133.347C771.638 132.446 773.106 131.59 774.584 130.802C775.098 130.532 775.715 130.768 775.962 131.339C776.209 131.908 775.993 132.593 775.478 132.867C774.045 133.63 772.622 134.46 771.248 135.334C771.086 135.435 770.909 135.486 770.735 135.486Z" fill="#F1F2F2"/>
<path d="M746.996 162.047C746.828 162.047 746.66 162.002 746.503 161.907C746.002 161.605 745.817 160.909 746.09 160.355C750.754 150.856 757.665 142.509 766.077 136.211C766.549 135.856 767.192 135.995 767.511 136.519C767.83 137.043 767.705 137.754 767.233 138.109C759.094 144.201 752.41 152.273 747.904 161.449C747.716 161.831 747.362 162.047 746.996 162.047Z" fill="#F1F2F2"/>
<path d="M828.752 152.422C828.752 167.571 821.546 180.847 810.731 188.282H877.773C876.922 162.542 863.243 140.149 843.085 127.58L853.829 111.079C854.637 109.839 854.385 108.104 853.266 107.21C852.143 106.315 850.582 106.593 849.775 107.835L839.011 124.368C838.871 124.584 838.773 124.817 838.696 125.056C830.421 120.676 821.216 117.888 811.462 117.084C821.868 124.61 828.752 137.62 828.752 152.422Z" fill="#DB5242"/>
<path d="M877.773 190H733.485C733.064 190 732.662 189.809 732.37 189.474C732.078 189.139 731.921 188.686 731.937 188.219C732.77 163.016 745.596 140.173 766.35 126.749L756.8 112.084C755.495 110.077 755.904 107.265 757.713 105.817C758.412 105.261 759.23 104.968 760.083 104.968C761.381 104.968 762.608 105.664 763.366 106.83L773.644 122.615C783.673 117.643 794.428 115.122 805.63 115.122C817.023 115.122 827.937 117.72 838.09 122.848L848.52 106.83C849.278 105.665 850.505 104.968 851.802 104.968C852.656 104.968 853.475 105.262 854.17 105.817C855.048 106.519 855.627 107.557 855.798 108.741C855.972 109.926 855.717 111.113 855.085 112.084L845.345 127.044C865.833 140.506 878.496 163.24 879.322 188.219C879.337 188.686 879.181 189.139 878.889 189.474C878.597 189.809 878.194 190 877.773 190ZM735.112 186.565H876.145C874.796 162.892 862.247 141.499 842.326 129.077C841.942 128.838 841.668 128.428 841.572 127.949C841.478 127.472 841.571 126.971 841.83 126.574L852.573 110.073C852.722 109.844 852.782 109.566 852.741 109.288C852.701 109.01 852.565 108.767 852.36 108.602C852.152 108.437 851.942 108.402 851.802 108.402C851.493 108.402 851.211 108.562 851.032 108.839L840.267 125.371C840.231 125.427 840.193 125.515 840.154 125.635C840.005 126.092 839.69 126.458 839.286 126.642C838.881 126.827 838.425 126.814 838.03 126.604C827.937 121.262 817.036 118.554 805.63 118.554C794.433 118.554 783.706 121.172 773.748 126.337C772.981 126.734 772.063 126.373 771.696 125.525C771.674 125.474 771.653 125.421 771.623 125.375L760.854 108.837C760.674 108.559 760.393 108.4 760.083 108.4C759.943 108.4 759.732 108.435 759.524 108.601C759.102 108.939 759.006 109.6 759.312 110.071L769.872 126.29C770.132 126.687 770.225 127.19 770.128 127.669C770.032 128.148 769.754 128.559 769.366 128.797C749.18 141.182 736.47 162.677 735.112 186.565Z" fill="#594A42"/>
<path d="M794.531 163.421C794.207 163.421 793.876 163.353 793.557 163.209L764.649 150.133C763.329 149.537 762.695 147.867 763.234 146.402C763.772 144.939 765.279 144.237 766.599 144.833L795.507 157.908C796.827 158.505 797.461 160.176 796.922 161.64C796.514 162.75 795.549 163.421 794.531 163.421Z" fill="#594A42"/>
<path d="M789.397 164.672C789.397 169.273 786.033 173.002 781.885 173.002C777.735 173.002 774.372 169.274 774.372 164.672C774.372 160.07 777.735 156.34 781.885 156.34C786.033 156.34 789.397 160.07 789.397 164.672Z" fill="#594A42"/>
<path d="M815.182 163.421C814.164 163.421 813.199 162.75 812.792 161.64C812.253 160.175 812.887 158.505 814.206 157.908L843.115 144.833C844.432 144.236 845.941 144.94 846.479 146.402C847.018 147.868 846.384 149.537 845.064 150.133L816.156 163.209C815.836 163.354 815.506 163.421 815.182 163.421Z" fill="#594A42"/>
<path d="M820.316 164.672C820.316 169.273 823.68 173.002 827.83 173.002C831.978 173.002 835.341 169.274 835.341 164.672C835.341 160.07 831.979 156.34 827.83 156.34C823.68 156.34 820.316 160.07 820.316 164.672Z" fill="#594A42"/>
<path d="M842.665 127.581L853.409 111.079C854.216 109.839 853.964 108.104 852.845 107.21C851.723 106.315 850.162 106.594 849.354 107.834L838.59 124.367C838.451 124.584 838.353 124.816 838.275 125.056C828.368 119.813 817.13 116.839 805.209 116.839C793.497 116.839 782.449 119.712 772.671 124.783C772.609 124.642 772.54 124.499 772.453 124.367L761.689 107.834C760.881 106.594 759.321 106.315 758.2 107.208C757.079 108.104 756.827 109.838 757.636 111.079L768.196 127.297C747.793 139.813 733.921 162.354 733.064 188.283H877.353C876.503 162.544 862.822 140.15 842.665 127.581Z" fill="#B6D152"/>
<path d="M770.313 135.486C769.956 135.486 769.608 135.278 769.416 134.91C769.133 134.362 769.305 133.662 769.799 133.347C771.212 132.449 772.68 131.593 774.163 130.802C774.679 130.528 775.295 130.769 775.541 131.338C775.788 131.909 775.571 132.593 775.058 132.866C773.62 133.632 772.196 134.463 770.827 135.334C770.665 135.436 770.488 135.486 770.313 135.486Z" fill="#F1F2F2"/>
<path d="M746.574 162.048C746.407 162.048 746.239 162.002 746.082 161.908C745.581 161.606 745.397 160.91 745.67 160.355C750.331 150.859 757.243 142.51 765.656 136.212C766.129 135.857 766.771 135.996 767.089 136.519C767.409 137.043 767.284 137.755 766.812 138.109C758.672 144.204 751.988 152.275 747.484 161.45C747.295 161.832 746.941 162.048 746.574 162.048Z" fill="#F1F2F2"/>
<path d="M828.332 152.423C828.332 167.57 821.125 180.847 810.31 188.282H877.353C876.502 162.543 862.822 140.149 842.665 127.581L853.409 111.079C854.216 109.839 853.964 108.104 852.845 107.21C851.723 106.315 850.162 106.594 849.354 107.834L838.59 124.367C838.451 124.584 838.353 124.816 838.275 125.056C830 120.675 820.796 117.888 811.042 117.085C821.448 124.61 828.332 137.621 828.332 152.423Z" fill="#9FB543"/>
<path d="M877.352 190H733.064C732.644 190 732.241 189.81 731.949 189.474C731.657 189.138 731.501 188.685 731.517 188.219C732.349 163.016 745.175 140.172 765.929 126.749L756.379 112.084C755.073 110.077 755.483 107.265 757.294 105.816C757.991 105.261 758.809 104.968 759.661 104.968C760.959 104.968 762.186 105.664 762.945 106.83L773.221 122.616C783.251 117.643 794.006 115.122 805.208 115.122C816.602 115.122 827.515 117.721 837.669 122.848L848.098 106.829C848.858 105.664 850.085 104.968 851.381 104.968C852.235 104.968 853.053 105.262 853.749 105.817C854.627 106.519 855.205 107.557 855.378 108.741C855.55 109.925 855.297 111.111 854.666 112.084L844.925 127.045C865.412 140.507 878.075 163.241 878.9 188.219C878.915 188.686 878.76 189.138 878.468 189.474C878.176 189.81 877.773 190 877.352 190ZM734.692 186.564H875.726C874.376 162.892 861.828 141.499 841.906 129.078C841.523 128.838 841.248 128.427 841.153 127.949C841.058 127.472 841.153 126.973 841.41 126.576L852.154 110.074C852.302 109.846 852.362 109.567 852.321 109.289C852.281 109.011 852.144 108.768 851.94 108.603C851.733 108.438 851.523 108.402 851.383 108.402C851.073 108.402 850.792 108.562 850.61 108.84L839.846 125.372C839.812 125.425 839.774 125.514 839.731 125.643C839.581 126.098 839.267 126.462 838.862 126.645C838.458 126.828 838.001 126.814 837.609 126.605C827.517 121.264 816.617 118.555 805.21 118.555C794.013 118.555 783.286 121.173 773.328 126.337C772.557 126.734 771.642 126.374 771.274 125.525C771.254 125.476 771.232 125.424 771.203 125.378L760.433 108.838C760.253 108.56 759.972 108.402 759.662 108.402C759.522 108.402 759.313 108.437 759.104 108.602C758.682 108.94 758.586 109.601 758.893 110.072L769.451 126.291C769.711 126.689 769.804 127.192 769.706 127.672C769.61 128.15 769.333 128.561 768.945 128.799C748.759 141.181 736.05 162.677 734.692 186.564Z" fill="#594A42"/>
<path d="M778.74 158.561C782.539 158.561 785.619 155.146 785.619 150.933C785.619 146.721 782.539 143.306 778.74 143.306C774.941 143.306 771.861 146.721 771.861 150.933C771.861 155.146 774.941 158.561 778.74 158.561Z" fill="#594A42"/>
<path d="M830.445 158.56C834.244 158.56 837.323 155.146 837.323 150.933C837.323 146.721 834.244 143.307 830.445 143.307C826.647 143.307 823.567 146.721 823.567 150.933C823.567 155.146 826.647 158.56 830.445 158.56Z" fill="#594A42"/>
<path d="M781.485 163.191C786.737 171.609 795.743 180.569 805.725 180.555C815.707 180.571 824.713 171.609 829.966 163.191C814.209 157.514 797.24 157.514 781.485 163.191Z" fill="#594A42"/>
<path d="M805.751 182.272C805.751 182.272 805.725 182.272 805.722 182.272C792.53 182.272 782.861 168.416 780.211 164.169C779.933 163.721 779.861 163.157 780.018 162.642C780.174 162.127 780.541 161.726 781.006 161.557C796.997 155.796 814.454 155.796 830.445 161.557C830.909 161.726 831.276 162.127 831.434 162.642C831.591 163.156 831.517 163.723 831.24 164.169C828.59 168.416 818.917 182.272 805.751 182.272ZM784.011 164.122C789.143 171.552 797.162 178.837 805.7 178.837H805.751C814.286 178.837 822.306 171.552 827.438 164.122C813.331 159.515 798.118 159.515 784.011 164.122Z" fill="#594A42"/>
<path d="M794.733 177.219C796.786 172.784 800.945 169.745 805.756 169.745C810.566 169.745 814.725 172.785 816.778 177.219" fill="#DD5A4B"/>
<path d="M816.779 178.937C816.216 178.937 815.674 178.596 815.4 178.003C813.531 173.969 809.836 171.462 805.755 171.462C801.674 171.462 797.978 173.97 796.11 178.003C795.72 178.846 794.785 179.177 794.026 178.746C793.265 178.313 792.965 177.277 793.355 176.434C795.756 171.249 800.506 168.028 805.755 168.028C811.003 168.028 815.755 171.249 818.154 176.436C818.545 177.28 818.245 178.314 817.483 178.747C817.258 178.876 817.017 178.937 816.779 178.937Z" fill="#DD5A4B"/>
<path d="M805.756 169.745C800.946 169.745 796.787 172.785 794.734 177.219C798.153 179.363 801.878 180.721 805.756 180.715C809.632 180.723 813.358 179.363 816.779 177.219C814.725 172.785 810.565 169.745 805.756 169.745Z" fill="#DD5A4B"/>
<path d="M805.786 182.433H805.755C801.865 182.433 797.908 181.181 793.971 178.714C793.249 178.26 792.977 177.254 793.357 176.434C795.758 171.249 800.508 168.028 805.757 168.028C811.005 168.028 815.757 171.249 818.156 176.436C818.536 177.255 818.263 178.261 817.54 178.714C813.603 181.181 809.648 182.433 805.786 182.433ZM796.905 176.548C799.894 178.176 802.857 178.998 805.732 178.998H805.785C808.658 178.998 811.619 178.176 814.607 176.549C812.593 173.375 809.322 171.462 805.757 171.462C802.191 171.461 798.92 173.375 796.905 176.548Z" fill="#DD5A4B"/>
</g>
<path d="M663.817 127.582L674.561 111.081C675.368 109.84 675.115 108.106 673.996 107.211C672.875 106.316 671.314 106.595 670.505 107.837L659.741 124.37C659.603 124.585 659.505 124.818 659.427 125.056C649.519 119.814 638.281 116.84 626.36 116.84C614.648 116.84 603.601 119.715 593.822 124.786C593.76 124.644 593.691 124.502 593.604 124.368L582.839 107.835C582.032 106.595 580.471 106.316 579.35 107.211C578.231 108.106 577.978 109.839 578.786 111.08L589.347 127.299C568.944 139.814 555.072 162.354 554.215 188.283H698.504C697.654 162.545 683.974 140.151 663.817 127.582Z" fill="#B6D152"/>
<path d="M591.466 135.486C591.108 135.486 590.76 135.281 590.569 134.913C590.286 134.363 590.456 133.664 590.951 133.349C592.362 132.452 593.83 131.595 595.314 130.803C595.829 130.532 596.445 130.768 596.693 131.339C596.94 131.909 596.724 132.592 596.21 132.867C594.77 133.635 593.346 134.466 591.978 135.336C591.816 135.438 591.639 135.486 591.466 135.486Z" fill="#F1F2F2"/>
<path d="M567.726 162.048C567.559 162.048 567.391 162.003 567.234 161.909C566.733 161.606 566.548 160.91 566.821 160.355C571.483 150.86 578.395 142.51 586.808 136.212C587.279 135.857 587.923 135.997 588.241 136.519C588.561 137.043 588.436 137.755 587.964 138.109C579.823 144.205 573.139 152.276 568.635 161.451C568.447 161.832 568.092 162.048 567.726 162.048Z" fill="#F1F2F2"/>
<path d="M649.484 152.425C649.484 167.573 642.276 180.848 631.462 188.283H698.504C697.654 162.544 683.974 140.15 663.817 127.582L674.561 111.081C675.368 109.84 675.116 108.106 673.996 107.211C672.875 106.316 671.315 106.595 670.505 107.837L659.741 124.37C659.603 124.585 659.505 124.818 659.427 125.056C651.151 120.679 641.948 117.889 632.193 117.087C642.599 124.61 649.484 137.623 649.484 152.425Z" fill="#9FB543"/>
<path d="M698.505 190H554.216C553.795 190 553.392 189.811 553.1 189.475C552.808 189.138 552.652 188.686 552.668 188.22C553.501 163.017 566.326 140.175 587.081 126.752L577.531 112.085C576.899 111.113 576.645 109.926 576.818 108.742C576.991 107.559 577.569 106.52 578.446 105.818C579.143 105.263 579.96 104.97 580.814 104.97C582.112 104.97 583.339 105.666 584.098 106.831L594.374 122.618C604.405 117.644 615.159 115.123 626.361 115.123C637.755 115.123 648.669 117.722 658.823 122.85L669.251 106.831C670.011 105.666 671.238 104.97 672.535 104.97C673.388 104.97 674.207 105.264 674.902 105.818C676.713 107.268 677.123 110.078 675.817 112.086L666.077 127.045C686.564 140.508 699.227 163.242 700.053 188.22C700.068 188.686 699.913 189.138 699.62 189.475C699.328 189.811 698.926 190 698.505 190ZM555.843 186.565H696.877C695.527 162.893 682.979 141.502 663.058 129.079C662.673 128.839 662.4 128.43 662.305 127.951C662.209 127.473 662.303 126.973 662.561 126.576L673.305 110.075C673.612 109.604 673.515 108.944 673.09 108.604C672.884 108.44 672.675 108.403 672.535 108.403C672.225 108.403 671.943 108.564 671.762 108.842L660.998 125.374C660.963 125.428 660.924 125.519 660.883 125.644C660.733 126.099 660.418 126.464 660.013 126.646C659.608 126.829 659.154 126.815 658.76 126.606C648.668 121.265 637.768 118.556 626.361 118.556C615.165 118.556 604.439 121.175 594.479 126.34C593.711 126.737 592.793 126.376 592.426 125.525C592.404 125.474 592.381 125.421 592.35 125.373L581.585 108.84C581.404 108.562 581.124 108.402 580.814 108.402C580.675 108.402 580.464 108.439 580.256 108.604C580.052 108.767 579.916 109.011 579.876 109.289C579.835 109.566 579.894 109.845 580.043 110.073L590.603 126.293C590.862 126.691 590.956 127.193 590.859 127.673C590.762 128.152 590.486 128.563 590.097 128.8C569.911 141.183 557.201 162.678 555.843 186.565Z" fill="#594A42"/>
<path d="M599.892 158.561C603.691 158.561 606.77 155.146 606.77 150.934C606.77 146.722 603.691 143.307 599.892 143.307C596.094 143.307 593.014 146.722 593.014 150.934C593.014 155.146 596.094 158.561 599.892 158.561Z" fill="#594A42"/>
<path d="M651.596 158.561C655.395 158.561 658.474 155.146 658.474 150.934C658.474 146.722 655.395 143.307 651.596 143.307C647.798 143.307 644.718 146.722 644.718 150.934C644.718 155.146 647.798 158.561 651.596 158.561Z" fill="#594A42"/>
<path d="M626.351 176.687C625.419 176.687 624.484 176.515 623.577 176.165C621.451 175.346 619.741 173.656 618.761 171.409C618.571 170.979 618.407 170.513 618.274 170.028C618.025 169.121 618.486 168.161 619.305 167.885C620.123 167.608 620.989 168.12 621.237 169.028C621.323 169.34 621.427 169.636 621.546 169.908C622.169 171.335 623.25 172.403 624.594 172.922C625.938 173.441 627.384 173.348 628.666 172.66C630.035 171.926 631.058 170.573 631.474 168.952C631.708 168.039 632.569 167.507 633.387 167.769C634.21 168.028 634.686 168.979 634.454 169.89C633.796 172.455 632.178 174.591 630.014 175.751C628.853 176.374 627.605 176.687 626.351 176.687Z" fill="#594A42"/>
<path d="M485.388 127.581L496.132 111.08C496.939 109.839 496.687 108.106 495.568 107.21C494.446 106.315 492.885 106.594 492.076 107.835L481.313 124.368C481.174 124.584 481.076 124.817 480.998 125.056C471.091 119.813 459.853 116.839 447.932 116.839C436.22 116.839 425.172 119.713 415.393 124.784C415.332 124.642 415.262 124.5 415.175 124.368L404.411 107.835C403.605 106.594 402.044 106.316 400.923 107.209C399.803 108.105 399.551 109.839 400.358 111.078L410.919 127.298C390.516 139.813 376.644 162.353 375.788 188.283H520.076C519.225 162.544 505.545 140.15 485.388 127.581Z" fill="#B6D152"/>
<path d="M413.037 135.486C412.679 135.486 412.331 135.279 412.14 134.911C411.857 134.362 412.028 133.662 412.522 133.348C413.933 132.451 415.402 131.595 416.885 130.802C417.399 130.532 418.017 130.767 418.264 131.338C418.511 131.908 418.295 132.592 417.781 132.866C416.341 133.635 414.918 134.465 413.55 135.335C413.388 135.437 413.211 135.486 413.037 135.486Z" fill="#F1F2F2"/>
<path d="M389.298 162.047C389.131 162.047 388.962 162.002 388.806 161.907C388.304 161.606 388.119 160.91 388.392 160.355C393.054 150.859 399.966 142.51 408.379 136.211C408.852 135.857 409.494 135.995 409.812 136.519C410.131 137.043 410.007 137.754 409.534 138.108C401.393 144.204 394.71 152.275 390.206 161.45C390.018 161.831 389.664 162.047 389.298 162.047Z" fill="#F1F2F2"/>
<path d="M471.054 152.425C471.054 167.571 463.848 180.848 453.033 188.282H520.075C519.225 162.543 505.544 140.149 485.388 127.581L496.132 111.08C496.938 109.839 496.686 108.106 495.567 107.21C494.446 106.315 492.885 106.594 492.076 107.835L481.312 124.368C481.173 124.584 481.076 124.817 480.998 125.056C472.722 120.677 463.519 117.888 453.764 117.087C464.17 124.61 471.054 137.622 471.054 152.425Z" fill="#9FB543"/>
<path d="M520.076 190H375.787C375.367 190 374.964 189.81 374.672 189.474C374.38 189.138 374.224 188.686 374.24 188.219C375.073 163.017 387.898 140.175 408.652 126.751L399.102 112.084C398.469 111.111 398.216 109.925 398.389 108.741C398.562 107.557 399.14 106.519 400.017 105.817C400.714 105.261 401.532 104.969 402.385 104.969C403.683 104.969 404.91 105.665 405.668 106.83L415.946 122.617C425.977 117.643 436.731 115.121 447.933 115.121C459.326 115.121 470.241 117.721 480.394 122.848L490.822 106.83C491.582 105.666 492.809 104.969 494.106 104.969C494.959 104.969 495.778 105.263 496.473 105.817C498.284 107.266 498.694 110.078 497.39 112.084L487.648 127.045C508.135 140.507 520.798 163.242 521.624 188.219C521.64 188.686 521.484 189.138 521.192 189.474C520.899 189.81 520.496 190 520.076 190ZM377.415 186.565H518.448C517.098 162.892 504.551 141.5 484.629 129.079C484.245 128.838 483.971 128.428 483.876 127.95C483.781 127.473 483.875 126.973 484.132 126.576L494.877 110.075C495.183 109.604 495.087 108.944 494.662 108.603C494.455 108.439 494.246 108.404 494.106 108.404C493.796 108.404 493.513 108.563 493.333 108.842L482.569 125.374C482.535 125.427 482.496 125.519 482.454 125.645C482.305 126.098 481.989 126.463 481.585 126.645C481.18 126.829 480.725 126.815 480.333 126.606C470.24 121.264 459.339 118.555 447.933 118.555C436.737 118.555 426.01 121.174 416.05 126.34C415.281 126.737 414.364 126.375 413.997 125.525C413.975 125.474 413.953 125.421 413.921 125.372L403.156 108.84C402.976 108.561 402.695 108.403 402.385 108.403C402.246 108.403 402.036 108.438 401.828 108.603C401.624 108.767 401.488 109.011 401.448 109.289C401.408 109.566 401.466 109.845 401.615 110.074L412.176 126.294C412.435 126.691 412.528 127.194 412.431 127.673C412.334 128.153 412.057 128.563 411.67 128.801C391.482 141.183 378.772 162.678 377.415 186.565Z" fill="#594A42"/>
<path d="M421.463 158.561C425.262 158.561 428.342 155.146 428.342 150.933C428.342 146.721 425.262 143.306 421.463 143.306C417.664 143.306 414.584 146.721 414.584 150.933C414.584 155.146 417.664 158.561 421.463 158.561Z" fill="#594A42"/>
<path d="M473.168 158.561C476.967 158.561 480.047 155.146 480.047 150.933C480.047 146.721 476.967 143.306 473.168 143.306C469.369 143.306 466.29 146.721 466.29 150.933C466.29 155.146 469.369 158.561 473.168 158.561Z" fill="#594A42"/>
<path d="M434.7 171.171H459.43" stroke="#594A42" stroke-width="2" stroke-linecap="round"/>
<path d="M123.431 127.581L134.175 111.079C134.983 109.839 134.731 108.104 133.612 107.21C132.489 106.315 130.928 106.593 130.121 107.835L119.357 124.368C119.217 124.584 119.12 124.817 119.042 125.056C109.134 119.813 97.8968 116.839 85.9755 116.839C74.2637 116.839 63.2166 119.712 53.4371 124.782C53.3762 124.641 53.3066 124.5 53.2196 124.368L42.4556 107.835C41.6484 106.593 40.0875 106.316 38.9658 107.208C37.846 108.104 37.5943 109.837 38.4022 111.079L48.9621 127.298C28.5592 139.812 14.6868 162.354 13.8301 188.283H158.119C157.268 162.543 143.589 140.149 123.431 127.581Z" fill="#FB6E52"/>
<path d="M51.0811 135.486C50.7237 135.486 50.3756 135.279 50.1849 134.91C49.9011 134.363 50.0724 133.662 50.5664 133.347C51.984 132.446 53.4518 131.59 54.9304 130.802C55.4444 130.532 56.0609 130.768 56.3085 131.339C56.5555 131.908 56.3393 132.593 55.8246 132.867C54.3916 133.63 52.9679 134.46 51.5945 135.334C51.4318 135.435 51.2551 135.486 51.0811 135.486Z" fill="#F1F2F2"/>
<path d="M27.3418 162.047C27.1745 162.047 27.0065 162.002 26.8492 161.907C26.3479 161.605 26.1632 160.909 26.4363 160.355C31.1001 150.856 38.0108 142.509 46.4235 136.211C46.8954 135.856 47.5386 135.995 47.8572 136.519C48.1758 137.043 48.0513 137.754 47.5788 138.109C39.4398 144.201 32.7567 152.273 28.2501 161.449C28.062 161.831 27.708 162.047 27.3418 162.047Z" fill="#F1F2F2"/>
<path d="M109.098 152.422C109.098 167.571 101.892 180.847 91.0771 188.282H158.119C157.268 162.542 143.589 140.149 123.431 127.58L134.175 111.079C134.983 109.839 134.731 108.104 133.612 107.21C132.489 106.315 130.929 106.593 130.121 107.835L119.357 124.368C119.217 124.584 119.12 124.817 119.042 125.056C110.767 120.676 101.562 117.888 91.808 117.084C102.214 124.61 109.098 137.62 109.098 152.422Z" fill="#DB5242"/>
<path d="M158.119 190H13.8308C13.4105 190 13.0082 189.809 12.7157 189.474C12.4239 189.139 12.2673 188.686 12.2834 188.219C13.1167 163.016 25.9422 140.173 46.6965 126.749L37.1466 112.084C35.8408 110.077 36.2504 107.265 38.0596 105.817C38.7583 105.261 39.5763 104.968 40.429 104.968C41.7274 104.968 42.9543 105.664 43.7127 106.83L53.9901 122.615C64.0192 117.643 74.7738 115.122 85.9762 115.122C97.3694 115.122 108.283 117.72 118.436 122.848L128.866 106.83C129.624 105.665 130.852 104.968 132.148 104.968C133.002 104.968 133.821 105.262 134.516 105.817C135.394 106.519 135.973 107.557 136.145 108.741C136.319 109.926 136.064 111.113 135.431 112.084L125.691 127.044C146.179 140.506 158.842 163.24 159.668 188.219C159.683 188.686 159.527 189.139 159.235 189.474C158.943 189.809 158.54 190 158.119 190ZM15.4579 186.565H156.491C155.142 162.892 142.593 141.499 122.672 129.077C122.288 128.838 122.014 128.428 121.918 127.949C121.824 127.472 121.917 126.971 122.176 126.574L132.919 110.073C133.068 109.844 133.129 109.566 133.087 109.288C133.047 109.01 132.911 108.767 132.706 108.602C132.498 108.437 132.289 108.402 132.148 108.402C131.839 108.402 131.558 108.562 131.378 108.839L120.614 125.371C120.577 125.427 120.539 125.515 120.5 125.635C120.351 126.092 120.037 126.458 119.632 126.642C119.227 126.827 118.772 126.814 118.376 126.604C108.283 121.262 97.3821 118.554 85.9762 118.554C74.7792 118.554 64.052 121.172 54.0938 126.337C53.3274 126.734 52.4091 126.373 52.0424 125.525C52.0203 125.474 51.9995 125.421 51.9687 125.375L41.2007 108.837C41.02 108.559 40.7395 108.4 40.429 108.4C40.2891 108.4 40.0782 108.435 39.8701 108.601C39.4477 108.939 39.352 109.6 39.6586 110.071L50.2185 126.29C50.4781 126.687 50.5712 127.19 50.4741 127.669C50.3778 128.148 50.1 128.559 49.7124 128.797C29.5264 141.182 16.8167 162.677 15.4579 186.565Z" fill="#594A42"/>
<path d="M74.8777 163.421C74.5531 163.421 74.2224 163.353 73.9031 163.209L44.9952 150.133C43.6753 149.537 43.0414 147.867 43.5802 146.402C44.1184 144.939 45.625 144.237 46.9449 144.833L75.8535 157.908C77.1735 158.505 77.8073 160.176 77.2685 161.64C76.8602 162.75 75.895 163.421 74.8777 163.421Z" fill="#594A42"/>
<path d="M69.7432 164.672C69.7432 169.273 66.3792 173.002 62.2307 173.002C58.0816 173.002 54.7183 169.274 54.7183 164.672C54.7183 160.07 58.0816 156.34 62.2307 156.34C66.3792 156.34 69.7432 160.07 69.7432 164.672Z" fill="#594A42"/>
<path d="M95.5287 163.421C94.5106 163.421 93.5455 162.75 93.1379 161.64C92.599 160.175 93.2329 158.505 94.5521 157.908L123.461 144.833C124.779 144.236 126.287 144.94 126.825 146.402C127.364 147.868 126.73 149.537 125.41 150.133L96.5025 163.209C96.1826 163.354 95.8526 163.421 95.5287 163.421Z" fill="#594A42"/>
<path d="M100.663 164.672C100.663 169.273 104.026 173.002 108.176 173.002C112.324 173.002 115.688 169.274 115.688 164.672C115.688 160.07 112.325 156.34 108.176 156.34C104.026 156.34 100.663 160.07 100.663 164.672Z" fill="#594A42"/>
<defs>
<clipPath id="clip0_45_1908">
<rect width="171.346" height="190" fill="white" transform="translate(719.654)"/>
</clipPath>
</defs>
</svg>
