<svg width="41" height="42" viewBox="0 0 41 42" fill="none" xmlns="http://www.w3.org/2000/svg">
<path d="M20.5 1.75C16.7834 1.75 13.1502 2.87899 10.06 4.99421C6.96969 7.10943 4.56111 10.1159 3.13881 13.6333C1.71652 17.1508 1.34438 21.0214 2.06946 24.7555C2.79454 28.4896 4.58427 31.9196 7.21233 34.6118C9.8404 37.304 13.1888 39.1373 16.834 39.8801C20.4792 40.6229 24.2576 40.2417 27.6913 38.7847C31.125 37.3277 34.0599 34.8604 36.1248 31.6947C38.1896 28.5291 39.2917 24.8073 39.2917 21C39.2917 15.8946 37.3119 10.9983 33.7878 7.3882C30.2636 3.77812 25.4839 1.75 20.5 1.75ZM30.7501 22.75H14.374L18.2912 26.7628C18.4543 26.9242 18.5845 27.1173 18.674 27.3308C18.7635 27.5443 18.8107 27.7739 18.8126 28.0063C18.8146 28.2387 18.7714 28.4691 18.6855 28.6842C18.5996 28.8992 18.4727 29.0946 18.3123 29.2589C18.1519 29.4233 17.9612 29.5532 17.7513 29.6412C17.5413 29.7292 17.3164 29.7735 17.0895 29.7714C16.8627 29.7694 16.6385 29.7211 16.4301 29.6294C16.2217 29.5377 16.0332 29.4044 15.8756 29.2373L9.04226 22.2372C8.72199 21.9091 8.54208 21.464 8.54208 21C8.54208 20.536 8.72199 20.0909 9.04226 19.7628L15.8756 12.7628C16.0332 12.5956 16.2217 12.4623 16.4301 12.3706C16.6385 12.2789 16.8627 12.2306 17.0895 12.2286C17.3164 12.2265 17.5413 12.2708 17.7513 12.3588C17.9612 12.4468 18.1519 12.5767 18.3123 12.7411C18.4727 12.9054 18.5996 13.1008 18.6855 13.3158C18.7714 13.5309 18.8146 13.7613 18.8126 13.9937C18.8107 14.2261 18.7635 14.4557 18.674 14.6692C18.5845 14.8827 18.4543 15.0758 18.2912 15.2372L14.374 19.25H30.7501C31.2031 19.25 31.6377 19.4344 31.958 19.7626C32.2784 20.0908 32.4584 20.5359 32.4584 21C32.4584 21.4641 32.2784 21.9092 31.958 22.2374C31.6377 22.5656 31.2031 22.75 30.7501 22.75Z" fill="#8FBAC8"/>
</svg>
