<svg width="41" height="42" viewBox="0 0 41 42" fill="none" xmlns="http://www.w3.org/2000/svg">
<path d="M20.4999 1.75C16.7833 1.75 13.1501 2.87899 10.0598 4.99421C6.96956 7.10943 4.56099 10.1159 3.13869 13.6333C1.71639 17.1508 1.34426 21.0214 2.06934 24.7555C2.79442 28.4896 4.58415 31.9196 7.21221 34.6118C9.84027 37.304 13.1886 39.1373 16.8339 39.8801C20.4791 40.6229 24.2575 40.2417 27.6912 38.7847C31.1249 37.3277 34.0598 34.8604 36.1246 31.6947C38.1895 28.5291 39.2916 24.8073 39.2916 21C39.2916 15.8946 37.3118 10.9983 33.7876 7.3882C30.2635 3.77812 25.4838 1.75 20.4999 1.75ZM30.7499 22.75H14.3738L18.2911 26.7628C18.4542 26.9242 18.5844 27.1173 18.6739 27.3308C18.7634 27.5443 18.8106 27.7739 18.8125 28.0063C18.8145 28.2387 18.7713 28.4691 18.6854 28.6842C18.5995 28.8992 18.4726 29.0946 18.3122 29.2589C18.1518 29.4233 17.9611 29.5532 17.7511 29.6412C17.5412 29.7292 17.3162 29.7735 17.0894 29.7714C16.8626 29.7694 16.6384 29.7211 16.43 29.6294C16.2216 29.5377 16.0331 29.4044 15.8755 29.2373L9.04214 22.2372C8.72187 21.9091 8.54196 21.464 8.54196 21C8.54196 20.536 8.72187 20.0909 9.04214 19.7628L15.8755 12.7628C16.0331 12.5956 16.2216 12.4623 16.43 12.3706C16.6384 12.2789 16.8626 12.2306 17.0894 12.2286C17.3162 12.2265 17.5412 12.2708 17.7511 12.3588C17.9611 12.4468 18.1518 12.5767 18.3122 12.7411C18.4726 12.9054 18.5995 13.1008 18.6854 13.3158C18.7713 13.5309 18.8145 13.7613 18.8125 13.9937C18.8106 14.2261 18.7634 14.4557 18.6739 14.6692C18.5844 14.8827 18.4542 15.0758 18.2911 15.2372L14.3738 19.25H30.7499C31.203 19.25 31.6375 19.4344 31.9579 19.7626C32.2783 20.0908 32.4583 20.5359 32.4583 21C32.4583 21.4641 32.2783 21.9092 31.9579 22.2374C31.6375 22.5656 31.203 22.75 30.7499 22.75Z" fill="#F3D5AA"/>
</svg>
