<svg width="28" height="30" viewBox="0 0 28 30" fill="none" xmlns="http://www.w3.org/2000/svg">
<path d="M14 15C15.2114 15 16.3956 14.6151 17.4029 13.894C18.4101 13.1729 19.1952 12.148 19.6588 10.9489C20.1224 9.74972 20.2436 8.43022 20.0073 7.15722C19.771 5.88422 19.1876 4.7149 18.331 3.79711C17.4744 2.87933 16.3831 2.25432 15.1949 2.0011C14.0068 1.74788 12.7753 1.87784 11.6561 2.37454C10.5369 2.87124 9.58027 3.71238 8.90725 4.79157C8.23422 5.87077 7.875 7.13956 7.875 8.4375C7.875 10.178 8.52031 11.8472 9.66897 13.0779C10.8176 14.3086 12.3755 15 14 15ZM14 3.75C14.8653 3.75 15.7112 4.02492 16.4306 4.53999C17.1501 5.05506 17.7108 5.78715 18.042 6.64367C18.3731 7.5002 18.4597 8.4427 18.2909 9.35199C18.1221 10.2613 17.7054 11.0965 17.0936 11.7521C16.4817 12.4076 15.7022 12.8541 14.8535 13.0349C14.0049 13.2158 13.1252 13.123 12.3258 12.7682C11.5263 12.4134 10.8431 11.8126 10.3623 11.0417C9.88159 10.2709 9.625 9.3646 9.625 8.4375C9.625 7.1943 10.0859 6.00202 10.9064 5.12294C11.7269 4.24386 12.8397 3.75 14 3.75Z" fill="#B8AEAE"/>
<path d="M14.875 16.875H13.125C10.5723 16.875 8.12414 17.9615 6.3191 19.8955C4.51406 21.8294 3.5 24.4525 3.5 27.1875C3.5 27.4361 3.59219 27.6746 3.75628 27.8504C3.92038 28.0262 4.14294 28.125 4.375 28.125H23.625C23.8571 28.125 24.0796 28.0262 24.2437 27.8504C24.4078 27.6746 24.5 27.4361 24.5 27.1875C24.5 24.4525 23.4859 21.8294 21.6809 19.8955C19.8759 17.9615 17.4277 16.875 14.875 16.875ZM5.3025 26.25C5.51766 24.1881 6.43432 22.2834 7.87735 20.8999C9.32037 19.5164 11.1886 18.751 13.125 18.75H14.875C16.8114 18.751 18.6796 19.5164 20.1227 20.8999C21.5657 22.2834 22.4823 24.1881 22.6975 26.25H5.3025Z" fill="#B8AEAE"/>
</svg>
